<svg width="100" height="100" viewBox="0 0 168 168" xmlns="http://www.w3.org/2000/svg">
    <circle cx="84" cy="84" r="84" fill="white"/>
    <g transform="translate(-4, 0)">
        <path d="M52.5 65.1c27.3-6.6 63.3-1.5 84.6 10.5 2.4 1.4 5.4.6 6.8-1.8s.6-5.4-1.8-6.8c-24-13.8-64.2-19.5-95.7-11.7-2.7.6-4.5 3.3-3.9 6.1.6 2.7 3.3 4.5 6.1 3.7zm4.2 24.3c22.2-5.4 50.1-1.2 66.9 8.4 2.1 1.2 4.8.3 6-1.8s.3-4.8-1.8-6c-19.2-11.1-50.1-14.7-75.9-8.4-2.4.6-3.9 3-3.3 5.4.6 2.4 3 3.9 5.4 3.3zm5.1 23.1c16.2-3.9 36.9-0.9 49.2 6.3 1.8 1.2 4.2.3 5.1-1.5s.3-4.2-1.5-5.1c-14.7-8.1-38.4-11.1-57.9-6.3-2.1.6-3.3 2.7-2.7 4.8s2.7 3.3 4.8 2.7z" fill="black"/>
    </g>
</svg>
